<svg width="31" height="34" viewBox="0 0 31 34" fill="none" xmlns="http://www.w3.org/2000/svg">
<path d="M0.755796 2.20297C0.393349 2.57289 0.183594 3.14884 0.183594 3.89471V30.4994C0.183594 31.2453 0.393349 31.8212 0.755796 32.1911L0.845252 32.2723L16.1359 17.37V17.0181L0.845252 2.11575L0.755796 2.20297Z" fill="#403F3D"/>
<path d="M23.0776 22.34L17.9863 17.37V17.0181L23.0837 12.0482L23.1979 12.1128L29.2345 15.4617C30.9573 16.4121 30.9573 17.976 29.2345 18.9324L23.1979 22.2753L23.0776 22.34Z" fill="#403F3D"/>
<path d="M22.2733 23.2007L17.0617 18.1195L1.68164 33.1166C2.25384 33.7031 3.18695 33.7737 4.24807 33.1873L22.2733 23.2007Z" fill="#403F3D"/>
<path d="M22.2733 11.1876L4.24807 1.20103C3.18695 0.620579 2.25384 0.691254 1.68164 1.27772L17.0617 16.2688L22.2733 11.1876Z" fill="#403F3D"/>
</svg>
