<svg width="28" height="33" viewBox="0 0 28 33" fill="none" xmlns="http://www.w3.org/2000/svg">
<path d="M22.7073 17.6307C22.6704 13.6324 26.065 11.6872 26.2203 11.5966C24.2977 8.86366 21.3178 8.49026 20.2707 8.46048C17.7679 8.20369 15.3403 9.92062 14.0654 9.92062C12.765 9.92062 10.8017 8.48529 8.68579 8.52747C5.96293 8.56841 3.41566 10.1055 2.0186 12.4923C-0.864579 17.359 1.28572 24.5108 4.04802 28.4446C5.42981 30.3712 7.04444 32.5223 9.15784 32.4466C11.2254 32.3635 11.9978 31.1614 14.4929 31.1614C16.9651 31.1614 17.6903 32.4466 19.8457 32.3983C22.0647 32.3635 23.4618 30.463 24.7952 28.519C26.392 26.3108 27.0333 24.1362 27.0588 24.0245C27.0066 24.0071 22.7493 22.4229 22.7073 17.6307Z" fill="#403F3D"/>
<path d="M18.6357 5.87268C19.7477 4.51675 20.5086 2.67205 20.2974 0.800049C18.6879 0.86952 16.675 1.88554 15.5159 3.21169C14.4903 4.38029 13.5742 6.29571 13.8109 8.097C15.6189 8.2285 17.4753 7.20752 18.6357 5.87268Z" fill="#403F3D"/>
</svg>
